<?xml version="1.0" standalone="no"?>
<!DOCTYPE svg PUBLIC "-//W3C//DTD SVG 20010904//EN"
 "http://www.w3.org/TR/2001/REC-SVG-20010904/DTD/svg10.dtd">
<svg version="1.0" xmlns="http://www.w3.org/2000/svg"
 width="776.000000pt" height="850.000000pt" viewBox="0 0 776.000000 850.000000"
 preserveAspectRatio="xMidYMid meet">

<g transform="translate(0.000000,850.000000) scale(0.100000,-0.100000)"
fill="#000000" stroke="none">
<path d="M3857 8430 c-59 -15 -89 -34 -141 -90 -54 -57 -117 -183 -165 -327
-17 -50 -56 -216 -87 -369 -30 -152 -70 -338 -89 -413 -18 -76 -39 -181 -45
-234 -7 -53 -15 -97 -19 -97 -3 0 -35 10 -71 21 -41 13 -105 23 -172 26 -180
10 -211 -12 -333 -239 -56 -104 -59 -107 -114 -131 -31 -13 -80 -46 -109 -72
l-53 -47 24 65 c28 77 165 322 219 392 62 80 167 182 253 248 167 128 285 260
269 302 -5 13 -13 15 -33 10 -48 -14 -105 -6 -270 35 -186 46 -303 58 -409 41
l-74 -11 -34 29 c-67 59 -193 76 -349 46 -95 -18 -122 -14 -196 30 -62 38
-141 55 -255 55 -131 0 -144 -36 -76 -216 22 -61 50 -160 62 -220 50 -264 50
-267 96 -342 24 -40 44 -75 44 -77 0 -3 -34 18 -75 45 -97 63 -203 103 -340
129 -214 41 -513 43 -644 5 -68 -20 -177 -73 -236 -115 -61 -44 -92 -107 -77
-157 13 -42 30 -54 188 -132 56 -27 124 -69 150 -93 110 -96 128 -102 244 -72
56 14 62 14 112 -6 71 -28 92 -49 119 -122 33 -91 63 -147 103 -194 41 -47
136 -99 201 -109 l44 -6 -26 -40 c-17 -26 -28 -57 -31 -92 -7 -92 22 -120 144
-135 45 -6 93 -16 108 -23 18 -7 57 -56 108 -133 61 -91 111 -150 206 -242 74
-73 133 -123 145 -123 12 0 17 -5 14 -14 -3 -8 -9 -30 -12 -49 -5 -27 -13 -37
-33 -42 -47 -12 -129 -83 -153 -133 -27 -55 -27 -57 -17 -752 5 -353 10 -449
23 -510 15 -65 17 -138 16 -540 -1 -256 -6 -541 -12 -635 -25 -434 -28 -607
-22 -1180 l6 -610 -26 -12 c-30 -14 -35 -34 -12 -53 20 -17 66 -4 72 20 5 19
13 19 217 14 182 -6 235 -4 388 15 159 20 211 22 510 18 183 -2 412 -10 508
-17 151 -12 253 -11 745 4 314 9 584 14 600 11 28 -5 279 -25 560 -45 66 -5
237 -6 380 -3 220 5 266 8 302 24 90 38 108 140 53 291 -54 147 -58 194 -48
478 5 140 13 458 17 705 5 309 11 464 20 495 18 65 6 1830 -14 2120 -8 113
-17 243 -18 290 l-4 85 -44 12 c-24 7 -79 27 -121 45 l-78 32 0 38 c0 31 -4
38 -20 38 -14 0 -22 -10 -28 -32 -8 -30 -12 -33 -53 -35 l-44 -3 25 17 c14 9
51 42 83 73 l57 57 1 89 1 89 19 -41 c10 -23 25 -67 34 -99 8 -32 17 -60 19
-63 9 -8 206 183 206 200 0 9 -28 47 -63 85 -112 123 -157 202 -157 278 0 51
8 75 24 75 22 0 135 -124 164 -181 24 -47 46 -117 68 -226 9 -47 41 -26 120
80 82 110 107 156 98 182 -4 9 -61 43 -127 76 -122 60 -217 122 -217 141 0 5
8 7 19 3 10 -3 49 -11 87 -19 102 -19 174 -64 220 -137 13 -22 31 -39 39 -39
13 0 14 15 9 98 -7 121 -17 155 -55 187 -57 47 -157 70 -311 70 l-138 0 0 88
c0 53 4 87 10 87 17 0 152 -70 187 -97 21 -16 33 -20 38 -13 4 6 4 82 0 169
-8 162 -1 215 30 241 27 22 38 -29 47 -210 14 -265 19 -270 286 -270 140 0
172 3 172 14 0 7 -15 20 -32 29 -18 8 -59 27 -90 41 -134 63 -229 216 -175
284 28 36 67 -3 171 -171 103 -169 96 -164 206 -148 141 20 342 67 448 105 53
19 117 41 141 48 35 10 46 19 52 41 10 37 -2 47 -137 114 -62 31 -112 59 -109
61 10 10 169 -32 234 -63 40 -19 77 -35 82 -35 15 0 10 20 -15 53 -12 18 -42
68 -66 112 -46 86 -98 148 -143 172 -17 8 -26 20 -23 28 7 19 -1 24 -148 98
l-129 65 -91 -29 c-309 -98 -426 -123 -426 -89 0 4 35 21 78 36 42 15 91 36
107 45 53 30 136 49 218 49 75 0 78 1 75 22 -2 18 -24 29 -120 65 -65 24 -148
48 -186 55 -91 15 -119 1 -249 -126 -159 -155 -192 -165 -130 -41 50 101 119
155 245 191 6 2 12 10 12 19 0 12 -15 15 -83 15 -88 0 -229 -15 -288 -30 -93
-25 -149 -100 -149 -201 0 -79 17 -159 40 -191 l20 -27 -53 -19 c-28 -11 -63
-23 -77 -27 -43 -13 -109 -64 -126 -97 -26 -50 -13 -129 30 -193 35 -50 36
-54 36 -148 0 -53 -4 -97 -9 -97 -5 0 -20 15 -35 34 -14 19 -47 45 -73 57 -42
21 -63 24 -160 24 -96 0 -112 2 -108 15 3 8 18 60 33 115 67 232 117 385 149
454 68 150 78 210 77 456 -1 238 -8 275 -61 357 -51 76 -172 128 -300 128 -60
0 -91 -7 -175 -39 -293 -110 -440 -237 -615 -533 l-48 -82 -13 65 c-20 97
-108 370 -154 473 -22 50 -48 130 -58 177 -34 165 -123 294 -245 356 -92 47
-257 73 -338 53z m218 -55 c131 -34 212 -98 274 -214 40 -75 39 -84 -2 -32
-70 89 -227 185 -321 196 -84 11 -197 -30 -325 -118 l-44 -30 28 50 c32 60
108 137 150 151 45 16 173 14 240 -3z m13 -111 c42 -17 58 -54 88 -204 21
-108 32 -192 68 -535 19 -174 52 -341 111 -558 l46 -168 -67 -112 c-37 -62
-129 -206 -204 -322 -76 -115 -184 -286 -241 -379 -130 -213 -268 -368 -293
-328 -3 5 -1 51 4 103 21 213 30 394 40 784 6 226 17 484 25 575 8 91 19 293
25 450 11 284 26 431 55 525 16 56 84 141 124 157 89 37 150 40 219 12z m153
-89 c26 -20 64 -58 84 -85 95 -129 242 -505 287 -731 l21 -107 -53 -103 c-29
-57 -75 -146 -103 -198 l-50 -93 -44 153 c-53 188 -86 370 -113 639 -19 190
-58 451 -79 528 -5 17 -7 32 -4 32 3 0 27 -16 54 -35z m-522 -26 c-30 -57 -50
-209 -60 -464 -5 -143 -19 -377 -30 -520 -11 -143 -26 -476 -34 -740 -9 -307
-20 -525 -31 -605 -9 -69 -17 -126 -19 -128 -1 -1 -35 6 -76 18 -40 11 -102
23 -137 26 -62 7 -63 7 -57 33 16 75 36 287 51 546 l17 290 58 56 c32 31 61
67 64 81 10 37 2 80 -15 88 -93 44 -90 41 -90 84 0 51 21 168 55 311 14 61 55
250 90 422 69 343 86 393 161 473 49 52 73 65 53 29z m1937 -260 c108 -40 168
-136 162 -255 l-3 -59 -25 48 c-28 55 -99 126 -156 155 -50 26 -169 62 -202
62 -24 0 -24 1 -8 19 48 53 138 65 232 30z m-388 -139 c-298 -339 -379 -453
-532 -746 -57 -110 -134 -248 -171 -309 -65 -108 -208 -391 -247 -490 -38 -97
-130 -260 -193 -340 -62 -80 -161 -171 -302 -280 -72 -54 -93 -65 -93 -45 0 5
-14 25 -31 44 l-31 35 44 52 c24 28 59 70 78 93 19 23 49 64 66 91 17 28 80
129 139 225 60 96 134 213 165 260 152 228 234 367 360 610 333 645 445 776
780 916 101 43 98 32 -32 -116z m273 20 c132 -44 217 -128 239 -237 11 -53 11
-57 -18 -103 -17 -27 -79 -115 -138 -196 -184 -252 -269 -398 -397 -684 -96
-215 -164 -382 -248 -613 -66 -180 -97 -253 -104 -245 -2 1 -8 37 -14 78 -6
41 -22 150 -36 242 -29 195 -50 404 -69 698 -16 245 -22 219 90 417 67 119
150 240 237 346 89 111 270 312 286 319 24 12 100 2 172 -22z m-3703 -146 c68
-45 124 -53 240 -34 136 22 266 6 306 -38 16 -19 14 -20 -43 -42 -132 -49
-272 -144 -342 -232 -60 -76 -80 -142 -94 -313 -9 -114 -17 -163 -35 -202
l-22 -53 -18 33 c-34 65 -87 153 -123 207 -43 63 -51 87 -71 227 -17 113 -51
240 -96 357 -52 135 -48 140 118 133 122 -5 124 -5 180 -43z m886 -104 c78
-26 365 -91 404 -92 23 0 42 -4 42 -8 0 -18 -107 -124 -188 -187 -196 -152
-315 -278 -386 -411 -20 -37 -42 -78 -50 -92 -58 -101 -119 -263 -111 -291 4
-10 -4 -34 -18 -56 -32 -52 -42 -81 -72 -203 -45 -184 -67 -241 -131 -338 -3
-5 -103 57 -154 96 -47 35 -102 98 -126 145 -12 23 -14 56 -8 176 6 138 5 159
-21 293 l-28 144 26 77 c21 59 27 96 27 160 0 162 35 271 116 357 92 99 263
193 407 224 75 17 229 20 271 6z m3085 -308 c-11 -48 -40 -134 -64 -192 -41
-101 -95 -269 -157 -492 l-30 -107 -54 -17 c-95 -30 -262 -189 -250 -238 4
-17 -2 -26 -30 -41 -61 -33 -88 -108 -74 -207 8 -54 20 -77 41 -78 3 0 27 18
53 41 25 22 46 37 46 34 0 -20 -44 -75 -60 -75 -24 0 -43 -25 -35 -49 4 -13
-9 -48 -39 -103 -74 -139 -127 -329 -142 -510 l-7 -86 -56 -7 c-31 -3 -91 -10
-133 -14 l-78 -7 0 46 c0 75 28 235 55 318 14 42 52 124 84 182 62 114 69 130
164 390 138 376 316 761 445 966 38 61 116 173 172 250 56 76 116 164 134 194
l31 55 3 -83 c2 -60 -3 -108 -19 -170z m628 49 c-54 -50 -109 -139 -121 -197
-7 -32 11 -64 37 -64 34 0 103 49 166 119 39 44 92 93 118 111 42 28 54 31 98
27 28 -3 88 -18 135 -33 l85 -27 -71 -18 c-40 -10 -98 -31 -131 -47 -32 -17
-79 -35 -103 -42 -77 -21 -100 -37 -100 -70 0 -41 29 -54 104 -48 58 5 227 51
381 103 l70 24 88 -47 88 -47 -83 -7 c-145 -12 -203 -28 -320 -87 -87 -43
-113 -61 -113 -76 0 -29 42 -45 124 -45 95 0 168 19 324 87 151 65 171 65 234
0 38 -39 130 -193 121 -202 -2 -3 -37 9 -78 26 -83 34 -252 66 -317 60 -7 -1
-13 -8 -13 -17 0 -9 26 -27 68 -45 241 -108 312 -142 312 -148 -1 -16 -18 -29
-50 -36 -19 -4 -80 -24 -136 -45 -106 -41 -443 -113 -498 -108 -26 3 -39 15
-78 73 -25 39 -61 99 -80 134 -40 79 -97 141 -127 141 -12 0 -36 -14 -53 -30
-27 -27 -29 -34 -23 -73 17 -99 114 -215 217 -261 l51 -23 -109 -6 c-99 -6
-150 -1 -195 17 -35 15 -43 56 -45 231 -2 180 -8 214 -47 240 -32 21 -54 11
-78 -38 -30 -58 -34 -131 -14 -252 9 -58 15 -108 13 -111 -6 -5 -94 42 -119
63 -9 7 -45 27 -80 44 -35 17 -72 38 -83 47 -31 28 -56 89 -56 135 0 39 5 49
38 79 22 20 61 43 88 52 75 27 154 65 154 75 0 5 -7 14 -16 22 -32 26 -47 74
-51 164 -5 107 11 147 73 179 37 20 151 43 222 45 l34 1 -55 -49z m-5182 -266
c172 -27 288 -71 408 -155 39 -28 84 -61 98 -73 42 -37 96 -153 124 -267 23
-91 25 -117 20 -192 -4 -49 -11 -88 -16 -88 -9 0 -49 39 -179 175 -117 124
-289 234 -440 284 -36 11 -132 36 -215 55 -82 19 -229 54 -326 79 -97 25 -197
48 -222 52 -26 4 -47 10 -47 14 0 10 85 59 148 85 51 21 115 37 207 50 59 9
342 -4 440 -19z m6032 -41 c-11 -12 -210 -93 -262 -108 -66 -19 -131 -25 -180
-17 l-40 7 85 41 c79 38 159 66 220 76 42 7 184 7 177 1z m-4094 -49 c38 -8
91 -25 120 -38 l51 -23 -45 -26 c-24 -14 -107 -83 -184 -153 -96 -88 -188
-160 -295 -230 -91 -60 -176 -125 -207 -157 -93 -100 -196 -275 -274 -465 -18
-46 -35 -83 -38 -83 -4 0 -20 9 -37 19 -47 29 -52 72 -15 130 32 50 64 144
109 316 16 61 41 133 55 161 40 79 119 159 190 192 75 36 81 42 142 157 59
112 109 181 144 200 35 19 195 19 284 0z m1536 -355 c16 -207 47 -487 72 -640
11 -69 24 -163 28 -210 8 -79 7 -88 -14 -125 -55 -96 -115 -338 -115 -466 0
-85 -17 -53 -34 64 -10 61 -33 189 -51 282 -76 376 -100 557 -114 860 l-8 170
30 55 c16 30 63 113 105 184 l77 128 6 -73 c4 -41 12 -144 18 -229z m-4132
259 c76 -16 197 -46 268 -65 72 -19 195 -50 273 -68 241 -58 391 -144 575
-332 62 -63 126 -124 143 -134 26 -17 32 -28 37 -69 3 -28 13 -64 23 -82 29
-57 107 -131 205 -195 64 -41 100 -72 108 -91 6 -15 27 -38 47 -51 32 -21 35
-26 28 -55 -5 -18 -7 -109 -6 -203 3 -167 2 -174 -28 -268 -27 -85 -34 -96
-54 -96 -22 0 -23 2 -15 48 5 26 14 49 19 50 6 2 10 12 10 23 0 38 -64 217
-121 339 -32 69 -58 139 -58 155 0 44 -25 138 -38 142 -6 2 -13 -6 -16 -18 -6
-21 -13 -16 -84 52 -132 126 -240 211 -436 344 -204 139 -266 197 -292 275
-10 29 -23 50 -31 50 -14 0 -15 -5 -18 -59 -2 -41 -9 -45 -47 -22 -19 12 -45
21 -58 21 -13 0 -57 20 -97 45 -81 51 -134 75 -164 75 -11 0 -43 17 -72 37
-63 46 -176 87 -195 71 -19 -15 -9 -24 44 -37 55 -14 122 -51 171 -93 24 -20
37 -26 46 -19 14 11 65 -10 139 -57 55 -35 51 -42 -33 -49 l-59 -6 -73 68
c-56 51 -99 80 -184 121 -61 30 -123 63 -138 75 -43 33 -30 109 19 109 13 0
86 -14 162 -31z m2838 -2 c13 -10 16 -21 11 -40 -12 -50 -77 -109 -253 -232
-39 -27 -85 -61 -103 -74 l-31 -23 -6 21 c-8 31 -26 21 -34 -18 -5 -22 -28
-54 -65 -92 -32 -33 -61 -59 -64 -59 -3 0 -11 14 -17 31 -17 45 -34 32 -63
-47 -36 -95 -86 -187 -131 -238 -39 -44 -201 -186 -213 -186 -3 0 -6 10 -6 21
0 16 -5 20 -19 16 -23 -6 -20 6 29 103 93 184 186 295 319 380 163 104 248
169 382 291 117 106 192 159 230 159 8 0 23 -6 34 -13z m-140 -384 c-10 -211
-31 -442 -51 -564 l-17 -105 -144 -12 c-189 -15 -206 -23 -254 -122 -61 -124
-128 -161 -290 -161 -50 0 -94 2 -97 6 -4 3 1 49 10 101 27 161 82 256 263
459 39 44 98 114 132 155 84 104 231 242 344 322 51 37 98 68 103 68 5 0 5
-65 1 -147z m2747 -46 c-3 -80 -6 -97 -19 -97 -14 0 -15 11 -10 83 4 45 7 96
7 112 1 26 2 28 13 14 8 -11 11 -47 9 -112z m-4792 -8 c26 -25 101 -81 166
-124 200 -132 343 -244 470 -370 97 -96 123 -127 128 -156 3 -20 25 -74 47
-120 23 -46 45 -95 51 -109 l9 -25 -27 25 c-30 28 -137 185 -210 309 -65 111
-142 195 -197 215 -23 9 -78 20 -122 25 -205 25 -287 86 -354 263 -17 44 -40
92 -50 107 -14 20 -16 30 -7 44 10 16 13 15 30 -10 11 -16 41 -49 66 -74z
m3239 -424 c19 -128 59 -356 96 -547 19 -97 35 -185 35 -194 0 -16 -18 -17
-247 -11 -137 4 -297 12 -358 18 -60 6 -188 9 -282 7 -193 -4 -188 -6 -152 65
28 55 46 75 86 93 18 9 41 30 52 47 11 17 47 54 80 82 381 319 411 359 596
774 l60 135 11 -195 c7 -107 17 -230 23 -274z m1366 441 c35 -16 66 -42 100
-85 35 -42 55 -59 65 -55 8 4 42 13 75 21 94 22 284 0 370 -43 57 -28 72 -57
78 -145 l5 -77 -45 45 c-58 56 -102 78 -194 98 -135 29 -138 29 -146 10 -12
-34 89 -114 231 -183 69 -34 126 -66 126 -72 0 -18 -153 -240 -165 -240 -1 0
-12 42 -24 94 -25 109 -67 185 -144 264 -61 62 -81 75 -106 67 -43 -13 -53
-103 -21 -186 26 -64 62 -117 139 -202 34 -37 61 -71 61 -75 0 -17 -160 -153
-164 -140 -38 120 -53 156 -88 210 -48 75 -103 138 -134 155 -32 18 -48 -5
-42 -62 7 -54 66 -181 111 -238 49 -61 50 -64 28 -100 -20 -33 -99 -98 -155
-129 -84 -46 -133 -68 -156 -68 -23 0 -23 1 12 38 70 72 127 222 98 257 -31
37 -70 2 -149 -133 -28 -50 -67 -104 -87 -121 -65 -57 -98 -36 -108 69 -9 91
-31 162 -56 185 -23 20 -120 197 -120 217 1 41 35 58 218 108 175 48 222 64
222 76 0 17 -24 46 -50 59 -32 17 -142 20 -202 6 -21 -5 -38 -7 -38 -5 0 2 16
33 36 69 l36 65 81 0 c45 0 133 -5 196 -10 63 -6 123 -8 133 -4 30 9 17 37
-27 59 -35 17 -59 20 -193 19 -84 0 -151 2 -150 6 2 3 20 47 42 97 22 53 45
94 55 96 9 3 57 5 106 6 75 1 98 -3 140 -23z m-355 -106 l-43 -88 -62 -11
c-78 -14 -115 -14 -115 0 0 16 109 127 155 159 47 32 98 51 103 38 2 -5 -15
-49 -38 -98z m-2636 -6 c6 -16 -19 -59 -48 -83 -11 -9 -9 3 7 43 23 59 31 66
41 40z m2978 -112 c11 -12 0 -13 -67 -7 -181 16 -207 24 -73 22 91 -1 131 -6
140 -15z m-459 -101 c-26 -45 -57 -84 -70 -90 -13 -6 -45 -31 -72 -56 -26 -25
-50 -45 -53 -45 -3 0 -9 29 -13 64 -5 53 -3 73 13 110 11 24 31 50 44 57 28
16 121 37 165 38 l32 1 -46 -79z m-3729 -62 c55 -15 131 -91 195 -196 109
-177 186 -289 233 -339 45 -48 108 -164 108 -200 0 -15 -3 -15 -27 2 -70 44
-242 233 -321 351 -92 137 -105 146 -240 162 -95 12 -112 27 -112 96 0 42 6
60 30 93 33 46 58 52 134 31z m3989 -27 c19 -20 19 -20 -34 -35 -166 -48 -281
-78 -289 -75 -5 2 6 27 23 55 29 48 36 53 82 63 27 5 59 12 70 14 44 10 128
-3 148 -22z m-3216 -282 c-6 -135 -30 -315 -51 -383 -15 -50 -64 -133 -72
-124 -3 3 2 33 11 68 14 52 16 91 11 209 -8 161 -1 201 56 338 l32 77 9 -35
c5 -19 7 -87 4 -150z m105 157 c-6 -7 -24 -39 -41 -72 l-30 -60 -1 52 c0 42 4
53 19 58 10 3 26 14 36 25 20 22 35 19 17 -3z m3379 -67 c27 -33 28 -38 21
-100 l-7 -65 -31 70 c-41 89 -50 138 -27 133 8 -2 29 -19 44 -38z m-635 -136
c25 -47 56 -97 69 -112 12 -15 27 -43 33 -62 13 -42 33 -181 27 -191 -3 -3
-26 -9 -52 -12 -27 -3 -79 -12 -118 -21 -90 -20 -175 -21 -175 -2 0 37 33 182
59 259 25 74 97 227 107 227 1 0 24 -38 50 -86z m-1837 36 c144 -35 261 -116
261 -179 0 -62 -49 -105 -140 -124 -25 -4 -157 -12 -295 -16 -286 -8 -308 -14
-368 -86 -20 -24 -37 -47 -37 -50 0 -4 -28 -40 -62 -82 l-61 -75 -49 4 c-27 3
-51 8 -54 11 -9 9 50 90 92 127 100 88 307 196 492 256 68 23 112 43 112 51 0
20 -30 16 -132 -18 -126 -42 -235 -92 -343 -158 -128 -77 -164 -109 -215 -190
l-45 -72 -140 5 c-77 2 -148 8 -157 11 -15 6 -12 15 27 64 53 67 79 125 95
208 l13 62 106 -1 c178 -3 250 34 311 160 42 85 60 100 137 112 98 15 356 4
452 -20z m2541 -56 c0 -48 -4 -73 -10 -69 -5 3 -10 40 -10 81 0 48 4 73 10 69
6 -3 10 -40 10 -81z m-233 -135 c-7 -51 -51 -140 -87 -174 -18 -18 -36 -25
-53 -23 -25 3 -24 4 35 103 88 146 115 171 105 94z m-2214 -195 c-12 -28 -17
-69 -17 -146 l0 -108 -41 0 c-22 0 -84 3 -138 7 -96 6 -98 7 -93 29 9 33 72
140 119 199 l39 50 72 5 c39 3 72 5 74 4 1 0 -5 -18 -15 -40z m-333 -27 l0
-64 -122 -6 c-157 -9 -198 -9 -198 1 0 4 22 30 48 59 40 43 55 52 92 57 25 3
56 7 70 10 14 2 44 4 68 5 l42 1 0 -63z m126 41 c-9 -13 -19 -30 -23 -38 -4
-8 -19 -35 -35 -59 l-28 -45 0 45 c0 24 3 61 6 82 7 36 7 37 52 37 44 0 44 0
28 -22z m2367 -120 c-62 -4 -208 -22 -325 -42 -117 -19 -237 -38 -266 -41
l-53 -7 3 48 3 48 99 13 c54 6 106 15 115 18 38 15 154 23 183 13 24 -8 37 -7
64 6 43 20 84 21 84 2 0 -33 84 -31 150 4 l35 18 10 -36 11 -37 -113 -7z m237
48 c0 -33 -13 -46 -46 -46 -12 0 -44 54 -44 75 0 3 20 5 45 5 44 0 45 0 45
-34z m133 -3 c16 -8 27 -16 25 -17 -1 -2 -24 -7 -50 -10 l-48 -7 0 31 c0 28 2
31 23 24 12 -3 35 -13 50 -21z m-1988 -53 c77 -6 233 -13 347 -16 l207 -6 7
-45 c3 -24 3 -47 -1 -51 -6 -6 -1065 -22 -1074 -16 -2 2 -6 32 -8 68 l-6 64
44 6 c24 3 55 8 69 10 33 6 239 -1 415 -14z m2121 2 c18 -11 33 -610 39 -1547
5 -774 4 -859 -11 -955 -14 -85 -18 -179 -19 -490 -1 -212 -7 -511 -12 -665
-12 -313 -8 -358 46 -503 52 -141 36 -229 -48 -252 -40 -10 -682 -16 -711 -6
-8 3 -82 10 -165 16 -82 6 -206 15 -275 21 -96 8 -220 7 -528 -5 -512 -20
-788 -20 -1021 0 -234 20 -744 15 -886 -10 -108 -18 -342 -24 -481 -12 l-101
9 -7 641 c-5 428 -4 702 4 826 24 413 30 594 30 987 0 368 -2 422 -19 510 -20
100 -24 277 -26 1033 0 190 9 219 80 255 48 24 134 25 440 7 746 -44 2006 -46
2365 -2 172 21 322 42 430 60 185 31 334 48 495 55 115 6 311 24 365 34 3 0
10 -3 16 -7z m-3002 -25 c0 -9 -1 -35 -2 -57 l-2 -40 -167 1 c-93 0 -187 4
-210 7 l-42 7 40 43 c39 42 40 42 112 43 40 1 110 4 157 9 108 9 115 8 114
-13z"/>
<path d="M2477 7413 c-3 -4 -8 -55 -12 -113 -3 -58 -11 -141 -17 -185 -5 -44
-11 -89 -12 -100 -2 -12 -14 -41 -28 -65 -32 -54 -47 -106 -94 -320 -20 -91
-40 -174 -44 -185 -7 -18 -9 -17 -15 10 -27 117 -50 198 -75 264 -15 42 -31
99 -35 128 -7 52 -25 80 -45 68 -15 -9 -12 -50 6 -93 9 -20 20 -82 25 -137 4
-55 15 -174 24 -265 9 -91 15 -221 14 -289 -3 -139 9 -166 35 -79 30 105 68
254 81 318 35 171 77 344 103 425 26 81 30 88 56 91 31 3 97 52 224 164 47 41
124 105 171 141 129 99 186 169 137 169 -6 0 -28 -16 -47 -36 -62 -65 -140
-118 -293 -201 -83 -44 -152 -80 -154 -78 -1 1 2 44 9 95 6 51 9 132 6 181 -4
86 -9 110 -20 92z m141 -357 c-92 -81 -158 -127 -158 -111 0 22 45 61 123 107
77 45 82 46 35 4z m-388 -613 l20 -103 -22 -92 -22 -93 -12 150 c-6 83 -17
191 -23 240 -6 50 -11 101 -10 115 1 41 47 -104 69 -217z"/>
<path d="M5939 5997 c-21 -36 -23 -54 -9 -91 11 -29 41 -34 59 -12 7 8 11 38
9 72 -4 70 -27 82 -59 31z m32 -74 c-9 -17 -10 -17 -16 0 -4 9 -4 29 0 45 l7
27 10 -27 c6 -18 6 -34 -1 -45z"/>
<path d="M5595 5830 c-27 -10 -60 -19 -72 -19 -32 -1 -83 -48 -83 -77 0 -32
17 -31 88 5 76 39 144 89 137 101 -7 12 -7 12 -70 -10z m-45 -45 c0 -5 -56
-35 -66 -35 -15 0 19 29 39 33 12 2 23 5 25 6 1 0 2 -1 2 -4z"/>
<path d="M5926 3222 c-3 -6 -1 -14 5 -17 15 -10 25 3 12 16 -7 7 -13 7 -17 1z"/>
<path d="M5840 3050 c-121 -36 -215 -75 -215 -90 0 -28 285 -92 308 -70 10 9
-17 15 -100 25 l-53 7 0 44 0 43 66 21 c36 11 72 20 79 20 8 0 17 5 20 10 9
15 -32 11 -105 -10z m-80 -86 c0 -29 -3 -34 -17 -30 -10 3 -31 8 -48 12 -51
12 -51 17 1 35 66 23 64 24 64 -17z"/>
<path d="M5685 2761 c-88 -10 -35 -17 113 -13 83 2 140 7 137 13 -7 10 -167
10 -250 0z"/>
<path d="M5918 2644 c-5 -4 -8 -29 -8 -55 0 -81 4 -79 -143 -79 -91 0 -128 -3
-121 -10 7 -7 55 -9 143 -4 123 7 132 8 137 29 7 30 1 128 -8 119z"/>
<path d="M5685 2376 c-65 -28 -71 -82 -13 -112 39 -20 182 -30 220 -15 36 13
62 54 53 81 -16 51 -182 80 -260 46z m199 -20 c19 -8 37 -19 40 -25 13 -20 -4
-49 -35 -61 -40 -17 -181 -7 -214 14 -36 23 -32 54 8 71 42 18 158 19 201 1z"/>
<path d="M5425 2216 c-113 -32 -264 -87 -272 -99 -3 -6 2 -16 12 -23 22 -16
215 -62 280 -66 75 -5 71 16 -5 24 -110 12 -110 12 -110 63 0 52 4 55 108 81
42 11 72 24 72 31 0 7 -1 13 -2 12 -2 0 -39 -11 -83 -23z m-119 -98 c-3 -17
-8 -34 -11 -36 -6 -7 -105 19 -105 27 0 8 84 38 109 40 10 1 12 -7 7 -31z"/>
<path d="M5693 2143 c-37 -2 -63 -8 -63 -15 0 -8 38 -10 128 -6 126 5 197 -1
176 -14 -6 -4 -71 -23 -144 -42 -148 -39 -168 -51 -146 -81 13 -18 29 -20 160
-23 99 -2 146 0 146 7 0 7 -39 11 -114 11 -114 0 -176 7 -176 19 0 4 61 24
136 44 139 38 164 49 164 73 0 31 -67 38 -267 27z"/>
<path d="M5455 1939 c-22 -4 -88 -10 -147 -14 -127 -8 -147 -27 -25 -24 71 2
82 0 81 -14 0 -10 -1 -33 -2 -52 l-2 -35 -85 0 c-50 0 -85 -4 -85 -10 0 -11
193 -14 278 -4 73 9 65 24 -13 24 l-65 0 0 49 0 48 60 7 c33 4 60 11 60 16 0
15 -13 17 -55 9z"/>
<path d="M5837 1853 c-33 -5 -49 -39 -41 -83 9 -41 24 -27 24 21 l0 40 53 -3
c49 -3 52 -5 55 -31 2 -16 -4 -39 -13 -53 -18 -27 -57 -31 -160 -14 -65 10
-95 34 -95 76 0 13 -5 24 -11 24 -17 0 -3 -70 18 -92 21 -21 103 -38 180 -38
67 0 103 29 103 83 0 59 -38 82 -113 70z"/>
<path d="M5370 1724 c-8 -1 -37 -6 -64 -9 -72 -10 -106 -46 -106 -116 l0 -52
150 7 c82 3 156 9 165 12 42 16 24 124 -25 149 -26 14 -81 18 -120 9z m121
-40 c9 -8 20 -29 23 -47 10 -51 -8 -57 -161 -57 l-133 0 0 28 c0 45 25 70 83
81 116 23 159 22 188 -5z"/>
<path d="M5895 1624 c-147 -44 -256 -87 -253 -103 7 -33 308 -95 308 -62 0 4
-32 11 -72 14 -39 3 -75 10 -80 15 -5 5 -6 27 -2 49 l6 40 76 19 c42 11 77 25
80 32 5 15 0 14 -63 -4z m-123 -98 l-4 -34 -47 14 c-25 7 -50 14 -56 15 -11 1
84 37 100 38 7 1 9 -13 7 -33z"/>
<path d="M5350 1424 l-13 -45 -21 38 c-22 39 -42 49 -80 39 -29 -7 -46 -45
-46 -101 0 -53 -4 -52 158 -35 157 16 182 21 182 32 0 7 -27 8 -85 3 -51 -4
-85 -3 -85 3 0 5 7 31 15 58 8 27 15 50 15 52 0 1 -6 2 -14 2 -7 0 -19 -20
-26 -46z m-53 -29 c12 -22 23 -43 23 -47 0 -5 -25 -8 -56 -8 l-57 0 6 36 c12
74 48 82 84 19z"/>
<path d="M5865 1335 c-158 -30 -225 -53 -225 -78 0 -6 23 -25 50 -40 28 -16
50 -32 50 -36 0 -5 -22 -28 -50 -52 -68 -59 -66 -73 8 -66 31 4 99 9 150 13
51 4 95 11 98 15 6 10 -51 10 -178 1 -49 -4 -88 -4 -88 -1 0 3 18 20 40 38 53
42 51 64 -7 100 l-48 30 35 14 c19 8 73 22 120 31 128 25 130 26 130 36 0 12
5 12 -85 -5z"/>
<path d="M5428 1249 c-149 -44 -243 -82 -243 -99 0 -18 70 -43 181 -64 123
-23 164 -26 164 -11 0 8 -25 14 -75 19 -42 4 -81 9 -88 12 -8 3 -11 21 -9 53
l4 49 86 24 c47 12 87 29 90 36 5 16 5 16 -110 -19z m-92 -81 c-3 -13 -6 -30
-6 -39 0 -15 -5 -15 -55 -1 -30 8 -55 18 -55 22 0 8 80 38 104 39 14 1 17 -4
12 -21z"/>
</g>
</svg>
